<svg xmlns="http://www.w3.org/2000/svg" width="10.031" height="5" viewBox="0 0 10.031 5">
  <defs>
    <style>
      .cls-1 {
        fill: #243f4d;
        fill-rule: evenodd;
      }
    </style>
  </defs>
  <path class="cls-1" d="M613.993,450.455a0.429,0.429,0,0,0,.147.319l4.474,4.069a0.055,0.055,0,0,1,.014.012,0.568,0.568,0,0,0,.151.091h0a0.6,0.6,0,0,0,.227.044h0a0.625,0.625,0,0,0,.222-0.042h0a0.536,0.536,0,0,0,.155-0.094,0.063,0.063,0,0,0,.012-0.01l4.476-4.069a0.42,0.42,0,0,0-.021-0.655,0.6,0.6,0,0,0-.759.017l-4.088,3.718-4.088-3.718a0.6,0.6,0,0,0-.76-0.017A0.434,0.434,0,0,0,613.993,450.455Z" transform="translate(-614 -450)"/>
</svg>
